<svg width="20" height="9" viewBox="0 0 20 9" fill="none" xmlns="http://www.w3.org/2000/svg">
<path d="M3.99066 0.727273V8H2.45302V2.18679H2.41041L0.744923 3.23082V1.86719L2.54535 0.727273H3.99066ZM8.87074 8.1598C8.25994 8.15743 7.73438 8.0071 7.29403 7.70881C6.85606 7.41051 6.5187 6.97846 6.28196 6.41264C6.04759 5.84683 5.93158 5.16619 5.93395 4.37074C5.93395 3.57765 6.05114 2.90175 6.28551 2.34304C6.52225 1.78433 6.85961 1.35937 7.29759 1.06818C7.73793 0.774621 8.26231 0.627841 8.87074 0.627841C9.47917 0.627841 10.0024 0.774621 10.4403 1.06818C10.8807 1.36174 11.2192 1.78788 11.456 2.34659C11.6927 2.90294 11.8099 3.57765 11.8075 4.37074C11.8075 5.16856 11.6892 5.85038 11.4524 6.41619C11.218 6.98201 10.8819 7.41406 10.4439 7.71236C10.0059 8.01065 9.48153 8.1598 8.87074 8.1598ZM8.87074 6.88494C9.28741 6.88494 9.62003 6.67543 9.86861 6.25639C10.1172 5.83736 10.2403 5.20881 10.2379 4.37074C10.2379 3.81913 10.1811 3.35985 10.0675 2.9929C9.9562 2.62595 9.79759 2.35014 9.59162 2.16548C9.38802 1.98082 9.14773 1.88849 8.87074 1.88849C8.45644 1.88849 8.125 2.09564 7.87642 2.50994C7.62784 2.92424 7.50237 3.54451 7.5 4.37074C7.5 4.92945 7.55563 5.39583 7.6669 5.76989C7.78054 6.14157 7.94034 6.42093 8.14631 6.60795C8.35227 6.79261 8.59375 6.88494 8.87074 6.88494ZM14.6883 0.727273L16.1549 3.20597H16.2118L17.6855 0.727273H19.422L17.2025 4.36364L19.4717 8H17.7032L16.2118 5.51776H16.1549L14.6635 8H12.9021L15.1784 4.36364L12.9447 0.727273H14.6883Z" fill="black"/>
</svg>
