<svg width="32" height="32" viewBox="0 0 32 32" fill="none" xmlns="http://www.w3.org/2000/svg">
<rect width="32" height="32" rx="16" fill="#D9D9D9"/>
<path d="M8 21.3C7.6134 21.3 7.3 21.6134 7.3 22C7.3 22.3866 7.6134 22.7 8 22.7V21.3ZM24 22L17 17.9585V26.0415L24 22ZM8 22.7L17.7 22.7V21.3L8 21.3V22.7Z" fill="black"/>
<path d="M8.31862 10.1818V16H7.08851V11.3494H7.05442L5.72203 12.1847V11.0938L7.16237 10.1818H8.31862ZM12.2227 16.1278C11.734 16.1259 11.3136 16.0057 10.9613 15.767C10.6109 15.5284 10.3411 15.1828 10.1517 14.7301C9.96416 14.2775 9.87136 13.733 9.87325 13.0966C9.87325 12.4621 9.967 11.9214 10.1545 11.4744C10.3439 11.0275 10.6138 10.6875 10.9642 10.4545C11.3164 10.2197 11.7359 10.1023 12.2227 10.1023C12.7094 10.1023 13.128 10.2197 13.4784 10.4545C13.8306 10.6894 14.1015 11.0303 14.2909 11.4773C14.4803 11.9223 14.574 12.4621 14.5721 13.0966C14.5721 13.7348 14.4774 14.2803 14.288 14.733C14.1005 15.1856 13.8316 15.5312 13.4812 15.7699C13.1308 16.0085 12.7113 16.1278 12.2227 16.1278ZM12.2227 15.108C12.556 15.108 12.8221 14.9403 13.021 14.6051C13.2198 14.2699 13.3183 13.767 13.3164 13.0966C13.3164 12.6553 13.271 12.2879 13.1801 11.9943C13.0911 11.7008 12.9642 11.4801 12.7994 11.3324C12.6365 11.1847 12.4443 11.1108 12.2227 11.1108C11.8912 11.1108 11.6261 11.2765 11.4272 11.608C11.2284 11.9394 11.128 12.4356 11.1261 13.0966C11.1261 13.5436 11.1706 13.9167 11.2596 14.2159C11.3505 14.5133 11.4784 14.7367 11.6431 14.8864C11.8079 15.0341 12.0011 15.108 12.2227 15.108ZM17.9705 16.1278C17.4819 16.1259 17.0614 16.0057 16.7091 15.767C16.3588 15.5284 16.0889 15.1828 15.8995 14.7301C15.712 14.2775 15.6192 13.733 15.6211 13.0966C15.6211 12.4621 15.7148 11.9214 15.9023 11.4744C16.0917 11.0275 16.3616 10.6875 16.712 10.4545C17.0642 10.2197 17.4838 10.1023 17.9705 10.1023C18.4572 10.1023 18.8758 10.2197 19.2262 10.4545C19.5785 10.6894 19.8493 11.0303 20.0387 11.4773C20.2281 11.9223 20.3218 12.4621 20.3199 13.0966C20.3199 13.7348 20.2252 14.2803 20.0358 14.733C19.8483 15.1856 19.5794 15.5312 19.229 15.7699C18.8786 16.0085 18.4591 16.1278 17.9705 16.1278ZM17.9705 15.108C18.3038 15.108 18.5699 14.9403 18.7688 14.6051C18.9677 14.2699 19.0661 13.767 19.0642 13.0966C19.0642 12.6553 19.0188 12.2879 18.9279 11.9943C18.8389 11.7008 18.712 11.4801 18.5472 11.3324C18.3843 11.1847 18.1921 11.1108 17.9705 11.1108C17.6391 11.1108 17.3739 11.2765 17.175 11.608C16.9762 11.9394 16.8758 12.4356 16.8739 13.0966C16.8739 13.5436 16.9184 13.9167 17.0074 14.2159C17.0983 14.5133 17.2262 14.7367 17.391 14.8864C17.5557 15.0341 17.7489 15.108 17.9705 15.108ZM22.6246 10.1818L23.7979 12.1648H23.8433L25.0223 10.1818H26.4115L24.6359 13.0909L26.4513 16H25.0365L23.8433 14.0142H23.7979L22.6047 16H21.1956L23.0166 13.0909L21.2297 10.1818H22.6246Z" fill="black"/>
</svg>
