<svg width="33" height="35" viewBox="0 0 33 35" fill="none" xmlns="http://www.w3.org/2000/svg">
<path d="M23.0887 3.22856L18.1641 2.28174L17.8794 3.632C13.2888 5.20579 9.34913 9.89446 8.07575 15.9625C6.80237 22.0305 8.55208 27.8059 12.1483 30.9607L11.8655 32.3128L16.7996 33.2596C23.3506 34.5209 30.0723 28.8181 31.8126 20.5257C33.5528 12.2333 29.6397 4.48796 23.0887 3.22856Z" fill="#E86124"/>
<path d="M17.72 28.8308L12.7954 27.8749L13.0782 26.5246C9.92793 23.7605 8.1972 18.9882 8.66974 13.7689C8.42856 14.4887 8.23025 15.2211 8.07575 15.9624C6.80237 22.0322 8.55208 27.8058 12.1483 30.9607L11.8655 32.3128L16.7996 33.2596C23.3506 34.5208 30.0723 28.8181 31.8126 20.5257C31.9636 19.7868 32.0726 19.0406 32.139 18.2904C29.7725 25.3597 23.677 29.9684 17.72 28.8308Z" fill="#DC4A26"/>
<path d="M26.8762 19.581C28.6161 11.2877 24.7154 3.54286 18.1637 2.28235C11.612 1.02183 4.89032 6.72299 3.1504 15.0162C1.41048 23.3095 5.31119 31.0543 11.8629 32.3148C18.4146 33.5753 25.1362 27.8742 26.8762 19.581Z" fill="#F0E92D"/>
<path d="M23.598 18.9502C24.8571 12.9487 22.0343 7.34407 17.2932 6.4319C12.5521 5.51972 7.68791 9.64542 6.4288 15.6469C5.1697 21.6484 7.99244 27.253 12.7336 28.1652C17.4747 29.0774 22.3389 24.9517 23.598 18.9502Z" fill="#EF8521"/>
<path d="M14.8924 25.2617C10.1101 24.3421 6.79858 20.1078 6.54239 15.1501C6.50191 15.3137 6.46395 15.4791 6.42853 15.6463C5.17033 21.6434 7.99415 27.2516 12.7347 28.1639C15.7862 28.7509 18.8871 27.2553 21.0467 24.5057C19.1348 25.389 16.9752 25.6543 14.8924 25.2617Z" fill="#E86124"/>
</svg>
