<svg width="25" height="26" viewBox="0 0 25 26" fill="none" xmlns="http://www.w3.org/2000/svg">
<path d="M17.868 2.42632L14.057 1.71478L13.8367 2.72951C10.2841 3.91223 7.23519 7.43579 6.24974 11.9959C5.2643 16.5561 6.61837 20.8963 9.40141 23.2672L9.18259 24.2833L13.001 24.9949C18.0707 25.9427 23.2726 21.657 24.6193 15.4252C25.966 9.19347 22.9377 3.37277 17.868 2.42632Z" fill="#E86124"/>
<path d="M13.7133 21.6666L9.90221 20.9483L10.121 19.9335C7.68312 17.8563 6.34374 14.2699 6.70942 10.3475C6.52278 10.8885 6.36931 11.4388 6.24974 11.996C5.2643 16.5575 6.61837 20.8964 9.40141 23.2672L9.18259 24.2833L13.001 24.9949C18.0707 25.9427 23.2726 21.6571 24.6193 15.4253C24.7362 14.87 24.8205 14.3092 24.8719 13.7454C23.0405 19.0581 18.3233 22.5216 13.7133 21.6666Z" fill="#DC4A26"/>
<path d="M20.799 14.7152C22.1455 8.48278 19.1268 2.66248 14.0566 1.7152C8.98634 0.767918 3.78454 5.05237 2.43805 11.2848C1.09155 17.5172 4.11025 23.3375 9.1805 24.2848C14.2507 25.2321 19.4525 20.9476 20.799 14.7152Z" fill="#F0E92D"/>
<path d="M18.262 14.2412C19.2364 9.73104 17.052 5.51914 13.3829 4.83364C9.71377 4.14813 5.94947 7.24862 4.97507 11.7588C4.00066 16.2689 6.18514 20.4808 9.85423 21.1663C13.5233 21.8518 17.2876 18.7513 18.262 14.2412Z" fill="#EF8521"/>
<path d="M11.525 18.9843C7.82411 18.2932 5.26136 15.1111 5.0631 11.3854C5.03177 11.5084 5.0024 11.6326 4.97498 11.7583C4.00128 16.2652 6.1866 20.4798 9.85522 21.1654C12.2168 21.6065 14.6165 20.4825 16.2878 18.4162C14.8082 19.08 13.1369 19.2793 11.525 18.9843Z" fill="#E86124"/>
</svg>
