<svg width="52" height="32" viewBox="0 0 52 32" fill="none" xmlns="http://www.w3.org/2000/svg">
<rect x="12" width="32" height="32" rx="16" fill="#D9D9D9"/>
<path d="M15 19.3C14.6134 19.3 14.3 19.6134 14.3 20C14.3 20.3866 14.6134 20.7 15 20.7V19.3ZM41.495 20.495C41.7683 20.2216 41.7683 19.7784 41.495 19.505L37.0402 15.0503C36.7668 14.7769 36.3236 14.7769 36.0503 15.0503C35.7769 15.3236 35.7769 15.7668 36.0503 16.0402L40.01 20L36.0503 23.9598C35.7769 24.2332 35.7769 24.6764 36.0503 24.9497C36.3236 25.2231 36.7668 25.2231 37.0402 24.9497L41.495 20.495ZM15 20.7L41 20.7V19.3L15 19.3V20.7Z" fill="black"/>
<path d="M19.9907 10.7273V18H18.453V12.1868H18.4104L16.7449 13.2308V11.8672L18.5453 10.7273H19.9907ZM24.8707 18.1598C24.2599 18.1574 23.7344 18.0071 23.294 17.7088C22.8561 17.4105 22.5187 16.9785 22.282 16.4126C22.0476 15.8468 21.9316 15.1662 21.9339 14.3707C21.9339 13.5777 22.0511 12.9018 22.2855 12.343C22.5223 11.7843 22.8596 11.3594 23.2976 11.0682C23.7379 10.7746 24.2623 10.6278 24.8707 10.6278C25.4792 10.6278 26.0024 10.7746 26.4403 11.0682C26.8807 11.3617 27.2192 11.7879 27.456 12.3466C27.6927 12.9029 27.8099 13.5777 27.8075 14.3707C27.8075 15.1686 27.6892 15.8504 27.4524 16.4162C27.218 16.982 26.8819 17.4141 26.4439 17.7124C26.0059 18.0107 25.4815 18.1598 24.8707 18.1598ZM24.8707 16.8849C25.2874 16.8849 25.62 16.6754 25.8686 16.2564C26.1172 15.8374 26.2403 15.2088 26.2379 14.3707C26.2379 13.8191 26.1811 13.3598 26.0675 12.9929C25.9562 12.6259 25.7976 12.3501 25.5916 12.1655C25.388 11.9808 25.1477 11.8885 24.8707 11.8885C24.4564 11.8885 24.125 12.0956 23.8764 12.5099C23.6278 12.9242 23.5024 13.5445 23.5 14.3707C23.5 14.9295 23.5556 15.3958 23.6669 15.7699C23.7805 16.1416 23.9403 16.4209 24.1463 16.608C24.3523 16.7926 24.5938 16.8849 24.8707 16.8849ZM30.6883 10.7273L32.1549 13.206H32.2118L33.6855 10.7273H35.422L33.2025 14.3636L35.4717 18H33.7032L32.2118 15.5178H32.1549L30.6635 18H28.9021L31.1784 14.3636L28.9447 10.7273H30.6883Z" fill="black"/>
</svg>
